PathFileType	4	(X/Y/Z)	pose_F01_0-95.trc
DataRate	CameraRate	NumFrames	NumMarkers	Units	OrigDataRate	OrigDataStartFrame	OrigNumFrames
30	30	6	21	m	30	23	95
Frame#	Time	CHip			RHip			RKnee			RAnkle			RBigToe			RSmallToe			RHeel			LHip			LKnee			LAnkle			LBigToe			LSmallToe			LHeel			Neck			Nose			RShoulder			RElbow			RWrist			LShoulder			LElbow			LWrist			
		X1	Y1	Z1	X2	Y2	Z2	X3	Y3	Z3	X4	Y4	Z4	X5	Y5	Z5	X6	Y6	Z6	X7	Y7	Z7	X8	Y8	Z8	X9	Y9	Z9	X10	Y10	Z10	X11	Y11	Z11	X12	Y12	Z12	X13	Y13	Z13	X14	Y14	Z14	X15	Y15	Z15	X16	Y16	Z16	X17	Y17	Z17	X18	Y18	Z18	X19	Y19	Z19	X20	Y20	Z20	X21	Y21	Z21	
23	0.7666666666666667	-0.17978463998438612	1.832889828127819	-0.5553171982704226	-0.1939920110194515	1.8291858915700545	-0.49120179260687474	-0.21740774430383786	1.6977934159836205	-0.5025631103207248	-0.22315201273251248	1.5532360372655112	-0.49114394383896903	-0.26211244840151565	1.5158085038823377	-0.5402724304136359	-0.19472551176209799	1.5712331059159441	-0.447022572359815	-0.21414482468082785	1.545967048198353	-0.48714847027515235	-0.1626017686249775	1.8328337983956364	-0.6127075462032383	-0.16002821188196675	1.7021095676228084	-0.5745006842321813	-0.13347282247496686	1.58102867262585	-0.5547413026921493	-0.2390650626088846	1.5359240399965968	-0.7933002170203308	-0.3133535849169921	1.5066371741716988	-1.1507640731171462	-0.1211967090867584	1.5747413194256379	-0.5372796900047365	-0.15889252290454484	1.9883431688363897	-0.5762349428386128	-0.18875295239049794	2.0386328170800176	-0.5869937803012139	-0.17802921072283584	1.9882626349069445	-0.50078577360727	-0.24157236951518066	1.980267735926392	-0.5047009673695864	-0.31483036145642407	1.9901045299659677	-0.5390744488022383	-0.13813079952868582	1.9894903789385692	-0.6517461314244648	-0.2082235032663382	1.9867821344725167	-0.662106538805935	-0.28259038335139836	1.9889611890399954	-0.6747474742887114
24	0.8	-0.19454517747913205	1.8292952018653017	-0.547736257923893	-0.20838391426860506	1.8293649048627179	-0.4929733073425275	-0.22063303862571337	1.6917862819657798	-0.5029799848703622	-0.22408652816516772	1.5524728809733779	-0.4946942937086429	-0.2664451959087063	1.5137679114051232	-0.5440931116016787	-0.19472551176209799	1.5712331059159441	-0.447022572359815	-0.21427222730602757	1.54517529792754	-0.49029353534753406	-0.1777614235926053	1.8311038721710926	-0.6048578720646797	-0.17577081476737672	1.6989480893854396	-0.5784812705932992	-0.1357820269165523	1.588222019078584	-0.5520243552718371	-0.27376961102054725	1.525419844495359	-0.9034991080003795	-0.31013013465647554	1.508974152726975	-1.1510633487965818	-0.1271488113656041	1.5820194967720018	-0.5384066137569256	-0.1661272760838215	1.9861657888002056	-0.5721962715124753	-0.1974036467738968	2.040609392481938	-0.5979053851578424	-0.184945513462031	1.9844758903235196	-0.4962947409548645	-0.2404114789935313	1.9804832500734657	-0.46674901808792607	-0.3187238324149418	1.9973721649105003	-0.535311740898557	-0.1470799388386243	1.9893204906413662	-0.6542081727528768	-0.22395759499574622	1.9907631564124308	-0.6681132983959333	-0.2972403911790403	1.9920076732580936	-0.6855698088873662
25	0.8333333333333334	-0.200682239269427	1.8268963383418482	-0.5493111914102555	-0.21448251877305374	1.826011519944123	-0.49466020812785716	-0.22383964488790775	1.6868471536480045	-0.5034455529302272	-0.225021043597823	1.5517097246812446	-0.49824464357831666	-0.2659720234696128	1.5111112617101823	-0.5441145147639906	-0.19472551176209799	1.5712331059159441	-0.447022572359815	-0.2143996299312273	1.5443835476567271	-0.49343860041991583	-0.18690534763416414	1.8285941575184679	-0.6074333267604785	-0.19177003575472135	1.698015880626269	-0.5828066730288792	-0.14460087152240506	1.598018468559022	-0.5517524765780394	-0.3084741594322099	1.5149156489941213	-1.0136979989804282	-0.16044877523663412	1.563309575840434	-0.585698736116952	-0.13095299929823648	1.589304789265799	-0.5439104735361404	-0.17311215949068343	1.9876151932760437	-0.5685397039248913	-0.20231295239768426	2.043255979405112	-0.5969125738579953	-0.19372692554351248	1.9855016287890885	-0.49910477197705894	-0.25963237904981973	1.9836624832044167	-0.5110076636438586	-0.32517689519304255	1.9904006202192475	-0.5368152246388368	-0.15139013517671443	1.9905956952162598	-0.6499146141881349	-0.23013766357116008	1.9838229014866813	-0.6594294796829613	-0.2978976440998858	1.9921709512431918	-0.6880096112268547
26	0.8666666666666667	-0.20359004427018215	1.8324588516020295	-0.551252295320318	-0.21654502899974884	1.8287899525768252	-0.49284245215609906	-0.2245791202409721	1.6914284371153208	-0.5074089314330368	-0.22595555903047826	1.5509465683891113	-0.5017949934479905	-0.26596903875692535	1.5115086192728504	-0.5440713408556229	-0.19472551176209799	1.5712331059159441	-0.447022572359815	-0.21452703255642705	1.5435917973859143	-0.49658366549229754	-0.18946020806986008	1.8326426874653297	-0.6177586051850532	-0.20393244613125233	1.7050794589739533	-0.5964354328398208	-0.15143271957122448	1.596089799027536	-0.5524789881032115	-0.34317870784387255	1.5044114534928836	-1.1238968899604769	-0.3220576783604112	1.5083996061765454	-1.1334860082007274	-0.13963295781073934	1.5922325387606702	-0.5381736554882182	-0.1780662673142868	1.9925649830627854	-0.5767924862800238	-0.2045197282784992	2.044226558199208	-0.594702398816997	-0.19785000736860595	1.9904099345591655	-0.49603872365862445	-1.7362993108713658	1.8888132076331918	1.140325918871862	-0.3323880639635418	1.994679844851759	-0.5510521020407994	-0.15441169445364544	1.995128570753754	-0.6513899112115827	-0.2170959766465074	1.9812793570404905	-0.6819202360858079	-0.29719164177822655	1.9947509590192307	-0.7043677449847082
27	0.9	-0.20441106981460752	1.826333262495207	-0.5622673394615068	-0.21857766120892425	1.8241470011212175	-0.4986249543998071	-0.22741451508388383	1.6862493734339277	-0.508271766577794	-0.2268900744631335	1.550183412096978	-0.5053453433176643	-0.2661166663666969	1.5117234416537402	-0.5440357930399802	-0.19472551176209799	1.5712331059159441	-0.447022572359815	-0.21465443518162677	1.5428000471151013	-0.49972873056467926	-0.18830327441720074	1.8274530740205508	-0.6224965599453868	-0.20601208568235202	1.6993364299136335	-0.5982461904733587	-0.15923058727749725	1.5913760468232208	-0.5560745108580064	-0.1910669456275387	1.5547849203252375	-0.5695705667329647	-0.33009084669848876	1.5072051860016649	-1.1149876908335756	-0.14741243364705894	1.5860252053351704	-0.5330229006665308	-0.18419064723307432	1.992153749919823	-0.5791196713467753	-0.21029138978034226	2.050060154933672	-0.5969826084152756	-0.20498239019907308	1.9894248200747213	-0.4927130095169169	-0.2696192029488828	1.9720681317692015	-0.5051330230458225	-0.3309446799728318	1.9889920380331947	-0.5617841910034072	-0.15840509865497482	1.9955910424829635	-0.6558465139378479	-0.210628663338684	1.9750936463082243	-0.6968084624456267	-0.2958952322473817	1.9929920193584456	-0.7093193875684718
28	0.9333333333333333	-0.20462545907351284	1.821570939288956	-0.5616944540128679	-0.2176370364327422	1.820966720683699	-0.4951181686306612	-0.24053505000662662	1.6856973948816132	-0.5116173538421005	-0.2227007406480153	1.5579978289276704	-0.5068879954297383	-0.26805987647939594	1.5113274540493158	-0.5420110842637241	-0.19472551176209799	1.5712331059159441	-0.447022572359815	-0.21388777091866062	1.540059150209661	-0.4997620826539833	-0.18827015047300874	1.8227307526632386	-0.622008916612975	-0.2106130168980298	1.6964498497733442	-0.6100493671289604	-0.1657232498682668	1.5883256053907377	-0.5490593468508593	-0.36081896171143907	1.4997053149868127	-1.0904763643387938	-0.3431116575559628	1.4993971207138166	-1.0985863360679737	-0.1504698334778334	1.5795286529021126	-0.5334490578405829	-0.18732272921203377	1.9886604730934068	-0.5794075401460924	-0.21635597358649655	2.054482709360544	-0.6001952824834728	-0.20891778235854536	1.9886900989762053	-0.5054118785565961	-0.2661354898844686	1.9429686278614746	-0.4943461496830103	-0.316567899479744	1.973085393465373	-0.5557102635432282	-0.1662757252075675	1.9856143288388015	-0.6621124226885347	-0.1914878512604422	1.9345776432265516	-0.7275875841206908	-0.2666422639165896	1.9649741045426106	-0.7194613856174488
